# xmcd
#
# Track frame offsets:
#	183
#	13093
#	22648
#	38688
#	49185
#	59380
#	67860
#	78855
#	90568
#	99995
#	113180
#	122818
#	135930
#	146090
#
# Disc length: 2084 seconds
#
# Revision: 1
# Processed by: cddbd v1.4b42PL1 Copyright (c) Steve Scherf et al.
# Submitted via: audiograbber 1.80
#
DISCID=a708220e
DTITLE=The Bee Gees - The Legend Begins
DYEAR=1900
DGENRE=
TTITLE0=Spicks and Specks
TTITLE1=You wouldn't know
TTITLE2=I was a lover, a leader of men
TTITLE3=How love was true
TTITLE4=To be or not to be
TTITLE5=Theme from Jamie McPheeter
TTITLE6=I want home
TTITLE7=I am the world
TTITLE8=Could it be I'm in love with you
TTITLE9=I don't think its funny
TTITLE10=Everyday I have to cry some
TTITLE11=Wine and Women
TTITLE12=Claustrophobia
TTITLE13=Turn around, look at me
EXTD=
EXTT0=
EXTT1=
EXTT2=
EXTT3=
EXTT4=
EXTT5=
EXTT6=
EXTT7=
EXTT8=
EXTT9=
EXTT10=
EXTT11=
EXTT12=
EXTT13=
PLAYORDER=
